PathFileType	4	(X/Y/Z)	C:/Users/beibeiliu/ov580/test_trc/User1\sequence.11_training_dense_left.trc
DataRate	CameraRate	NumFrames	NumMarkers	Units	OrigDataRate	OrigDataStartFrame	OrigNumFrames
120	120	14	19	mm	120	214	341
Frame#	Time	ThumbCMC			ThumbMCP			ThumbIP			ThumbTip			IndexMCP			IndexPIP			IndexTip			MiddleMCP			MiddlePIP			MiddleTip			RingMCP			RingPIP			RingTip			PinkyMCP			PinkyPIP			PinkyTip			BackHand1			BackHand2			BackHand3	
		X0	Y0	Z0	X1	Y1	Z1	X2	Y2	Z2	X3	Y3	Z3	X4	Y4	Z4	X5	Y5	Z5	X6	Y6	Z6	X7	Y7	Z7	X8	Y8	Z8	X9	Y9	Z9	X10	Y10	Z10	X11	Y11	Z11	X12	Y12	Z12	X13	Y13	Z13	X14	Y14	Z14	X15	Y15	Z15	X16	Y16	Z16	X17	Y17	Z17	X18	Y18	Z18	
213	1.775	-172.837	123.543	34.2772	-150.184	105.374	4.48253	-147.91	103.783	-25.176	-150.714	94.2794	-54.6205	-165.041	149.673	-47.0183	-153.758	122.681	-57.1935	-160.46	105.686	-27.3804	-185.276	136.294	-56.4438	-173.829	106.96	-58.5612	-179.949	95.4779	-20.5306	-205.685	118.401	-51.527	-189.033	89.7225	-39.7052	-192.005	94.438	-8.28155	-221.782	106.212	-40.8566	-204.541	87.8538	-25.7117	-207.218	99.7143	5.58995	-232.999	142.896	0.713538	-240.403	133.997	34.7038	-202.113	149.977	29.3221	
214	1.78333	-172.08	125.486	33.464	-153.345	109.432	1.48403	-147.389	105.515	-25.9896	-148.693	95.9101	-49.252	-165.802	153.226	-45.982	-157.877	125.174	-57.9734	-158.087	108.431	-25.4841	-188.02	141.266	-53.5833	-170.589	108.133	-55.7473	-175.894	99.5862	-18.3959	-207.628	119.275	-51.3595	-191.68	91.2758	-42.5859	-195.905	96.8506	-7.37847	-223.64	106.77	-41.6864	-205.969	87.459	-24.5956	-209.23	101.655	6.09917	-232.175	146.327	0.239492	-239.1	135.33	35.076	-206.378	152.974	27.9217	
215	1.79167	-173.534	126.517	30.3993	-154.433	109.958	2.77384	-145.905	105.592	-24.3452	-144.295	96.4565	-46.7263	-171.303	157.027	-41.8988	-159.846	132.234	-62.0684	-157.324	109.041	-36.0571	-189.876	140.385	-56.1663	-173.887	112.454	-58.5638	-176.982	102.16	-16.9073	-203.838	119.878	-53.3246	-192.981	92.4308	-41.7999	-192.579	97.745	-8.62836	-224.279	106.017	-43.2157	-205.613	89.8936	-28.4151	-206.954	104.244	3.98632	-233.807	144.684	0.340901	-239.273	137.886	37.6883	-205.369	155.394	26.0047	
216	1.8	-174.381	126.567	33.8412	-155.324	110.723	0.0844485	-145.144	105.645	-22.8468	-143.187	98.305	-49.1083	-172.443	161.71	-43.5097	-160.428	137.449	-67.3335	-152.321	110.182	-51.892	-187.974	145.021	-53.5795	-171.775	111.362	-57.1159	-179.568	104.198	-18.2587	-206.759	123.882	-50.4858	-191.581	94.1867	-40.4358	-192.468	100.401	-6.73944	-222.618	110.522	-44.0369	-205.295	92.3487	-30.5388	-205.357	107.7	0.873957	-231.093	148.813	1.03996	-241.564	137.568	33.2456	-206.15	154.682	26.2064	
217	1.80833	-169.822	128.871	29.7205	-154.236	111.543	-0.359841	-146.628	105.666	-22.6362	-144.781	99.0413	-48.3357	-173.34	164.735	-44.9876	-166.732	149.808	-70.8705	-151.401	118.308	-70.5733	-187.282	142.35	-57.8414	-172.802	112.352	-57.3689	-178.465	104.089	-18.3884	-204.84	121.672	-52.1304	-193.052	94.3596	-41.5509	-192.542	101.607	-5.49426	-225.482	112.694	-42.7217	-207.907	90.7275	-31.0551	-209.209	109.288	-0.702111	-231.326	150.177	0.621763	-240.378	137.695	34.6899	-206.152	155.481	25.7616	
218	1.81667	-171.46	128.948	29.6729	-154.731	111.283	2.48926	-146.94	107.83	-25.0561	-144.553	98.4287	-50.3575	-177.051	166.44	-42.7351	-171.617	157.485	-71.5454	-156.897	131.02	-86.7133	-189.722	142.319	-57.7136	-176.538	111.945	-57.9555	-180.188	104.24	-17.4071	-208.152	123.174	-51.1005	-190.093	94.5016	-39.8245	-194.744	97.708	-8.77909	-228.715	112.281	-43.0478	-205.615	94.7247	-30.1884	-208.525	109.412	-0.280455	-232.289	149.287	1.11457	-242.558	139.765	33.6309	-207.821	156.15	28.379	
219	1.825	-173.097	128.418	31.0344	-153.532	111.297	3.05965	-146.709	108.945	-28.1003	-147.413	98.4345	-48.6141	-177.334	168.888	-40.684	-174.521	164.486	-70.904	-161.568	144.484	-96.3828	-189.867	143.188	-54.468	-178.285	110.645	-58.5625	-182.04	100.788	-19.4749	-205.876	120.424	-52.4432	-190.849	96.2349	-42.021	-195.182	96.6952	-6.17424	-225.049	114.269	-42.7697	-208.898	92.0376	-32.5056	-207.536	107.475	-3.65969	-232.599	148.071	-0.0122663	-240.733	141.961	34.7181	-207.257	156.134	25.2583	
220	1.83333	-171.516	128.438	33.0749	-153.782	112.23	3.25192	-145.374	107.306	-24.3816	-150.002	100.581	-50.8777	-178.1	168.878	-40.4638	-172.802	168.798	-70.774	-166.713	160.515	-95.266	-187.886	144.759	-52.6085	-173.906	111.185	-57.7705	-178.209	100.163	-17.7139	-206.391	120.737	-52.7143	-194.42	93.7125	-41.6404	-194.599	94.4263	-8.6221	-226.558	110.118	-45.5599	-207.934	93.0969	-33.4209	-207.356	109.975	-2.91493	-234.685	147.941	-1.51997	-237.902	141.298	33.2149	-204.406	157.342	25.9209	
221	1.84167	-170.166	127.755	34.3963	-152.877	111.882	1.67054	-147.299	108.255	-27.7425	-150.801	99.8802	-52.907	-179.133	168.313	-38.8927	-175.442	170.67	-66.2157	-170.738	166.215	-95.0701	-187.252	144.436	-54.1365	-177.389	108.994	-57.6969	-180.259	98.322	-17.85	-205.49	123.502	-50.752	-193.621	93.4252	-41.1399	-196.034	92.459	-6.28178	-224.946	113.323	-44.3558	-208.628	93.1192	-32.8765	-208.421	106.194	-1.19467	-231.376	149.125	-0.231161	-242.869	140.723	38.4887	-202.332	157.994	26.6795	
222	1.85	-171.898	127.29	33.2645	-154.02	111.575	0.527256	-148.094	108.662	-28.5238	-154.797	100.059	-55.5435	-178.05	169.541	-36.5725	-175.145	172.856	-63.6715	-173.107	171.515	-91.3971	-189.481	144.626	-52.4043	-176.021	108.697	-56.9615	-181.342	97.6543	-18.3562	-205.28	122.605	-51.4453	-194.436	92.747	-42.971	-196.602	88.9612	-9.22119	-229.7	115.304	-41.1513	-209.263	91.8679	-30.8586	-208.425	105.676	-0.249745	-233.914	148.76	0.0729612	-239.282	140.536	37.0514	-206.461	154.392	28.8353	
223	1.85833	-170.467	127.068	33.2492	-155.897	107.875	5.17067	-152.907	105.747	-24.2709	-154.78	95.6408	-52.8793	-179.316	168.521	-38.4075	-179.865	171.623	-64.8521	-178.819	171.974	-93.4914	-192.113	139.624	-54.8526	-176.249	108.475	-58.5858	-178.878	96.2131	-17.8959	-206.248	122.055	-50.4171	-193.366	90.283	-40.7194	-193.264	87.1645	-10.7562	-226.074	110.709	-43.8402	-207.416	93.2631	-31.6808	-206.802	104.369	-0.512139	-231.563	149.772	1.57659	-243.504	141.438	34.3274	-206.438	153.1	26.8959	
224	1.86667	-172.512	124.556	31.3248	-158.857	106.378	0.625415	-149.074	97.0005	-24.508	-157.022	87.1548	-51.7028	-178.396	164.444	-41.451	-178.211	167.503	-68.8343	-175.738	168.804	-95.1643	-190.463	133.755	-57.3512	-178.23	100.101	-56.3628	-178.3	94.7575	-16.9455	-209.181	117.246	-49.0461	-194.535	83.6243	-40.5688	-192.323	82.67	-9.05431	-229.046	103.927	-43.8101	-208.817	85.304	-30.9349	-205.224	102.707	0.259898	-235.099	144.313	0.627663	-242.601	139.789	36.1164	-203.633	153.879	24.8835	
225	1.875	-170.51	122.284	31.9917	-154.149	100.537	4.16324	-154.21	92.7721	-20.5447	-160.8	80.8751	-52.1174	-178.089	157.3	-46.9736	-172.78	159.891	-71.1032	-178.049	159.498	-93.7615	-189.431	130.509	-54.7858	-179.455	94.8519	-56.255	-180.265	91.2569	-17.5087	-207.756	106.364	-51.6935	-190.351	80.2097	-39.4559	-193.221	77.1767	-8.00005	-225.432	99.1815	-41.9465	-208.106	81.7913	-28.2974	-205.502	97.9091	2.19593	-234.274	141.481	-0.312972	-241.059	134.884	36.2602	-203.942	149.778	23.7709	
226	1.88333	-170.183	120.319	30.3459	-159.316	97.0804	2.73299	-151.326	86.2722	-25.6756	-164.402	74.9336	-50.8248	-176.873	151.152	-45.8771	-173.837	153.636	-72.099	-174.997	155.396	-94.6134	-189.124	122.72	-56.8067	-177.244	88.3022	-52.5707	-180.391	89.5719	-14.0986	-204.988	102.922	-50.2339	-194.214	74.3084	-37.8469	-192.029	75.7047	-3.32925	-228.093	91.7415	-41.8078	-209.464	75.3755	-25.7511	-203.847	94.4844	-1.05387	-235.824	136.673	-4.83038	-239.046	135.527	33.0641	-206.468	147.125	23.4043	
